<?xml version="1.0" encoding="UTF-8"?>
<svg width="60px" height="60px" viewBox="0 0 60 60" version="1.1" xmlns="http://www.w3.org/2000/svg" xmlns:xlink="http://www.w3.org/1999/xlink">
    <title>ACA/ASSET/ACA/未点中 2</title>
    <defs>
        <filter id="filter-1">
            <feColorMatrix in="SourceGraphic" type="matrix" values="0 0 0 0 0.788235 0 0 0 0 0.792157 0 0 0 0 0.807843 0 0 0 1.000000 0"></feColorMatrix>
        </filter>
    </defs>
    <g id="首页" stroke="none" stroke-width="1" fill="none" fill-rule="evenodd">
        <g transform="translate(-345.000000, -1246.000000)" id="ACA/ASSET/ACA/未点中-2">
            <g transform="translate(345.000000, 1246.000000)" id="编组-21" filter="url(#filter-1)">
                <g transform="translate(3.000000, 3.000000)">
                    <path d="M27.6405808,4.57735027 L45.2478989,14.7429401 C45.866701,15.1002057 46.2478989,15.7604597 46.2478989,16.4749909 L46.247,26.2728022 L38.1135247,26.2299746 C37.2763941,26.21867 36.4689945,26.5434203 35.8683966,27.1330062 L30.2496992,32.6581339 L24.0197627,26.4319801 C23.1899043,25.4226024 21.7076772,25.284364 20.7091219,26.1232143 C19.7105665,26.9620668 19.5738103,28.4603586 20.4036665,29.4697363 C20.5012446,29.5884234 20.610028,29.6972197 20.7284756,29.7945847 L28.0163258,37.090118 C29.2633863,38.303294 31.236012,38.303294 32.4830726,37.090118 L38.701243,30.9827843 L46.247,31.0368022 L46.2478989,36.8061706 C46.2478989,37.5207018 45.866701,38.1809558 45.2478989,38.5382214 L27.6405808,48.7038113 C27.0217786,49.0610769 26.2593829,49.0610769 25.6405808,48.7038113 L8.03326267,38.5382214 C7.41446051,38.1809558 7.03326267,37.5207018 7.03326267,36.8061706 L7.033,27.7468022 L14.6748705,27.8103098 C15.5174707,27.839443 16.3329803,27.5071141 16.9199984,26.8953962 L22.5386958,21.3583866 L28.7686323,27.5726467 C29.2065162,28.0116725 29.7975383,28.25918 30.4142758,28.2618031 C31.7126538,28.2628505 32.7660333,27.1997504 32.7670736,25.8873006 C32.7675733,25.2530063 32.5171957,24.6448315 32.0716741,24.1981601 L24.7838239,16.9145205 C23.5392372,15.6951599 21.561664,15.6951599 20.3170771,16.9145204 L14.0871407,23.0693705 L7.033,23.0178022 L7.03326267,16.4749909 C7.03326267,15.7604597 7.41446051,15.1002057 8.03326267,14.7429401 L25.6405808,4.57735027 C26.2593829,4.22008468 27.0217786,4.22008468 27.6405808,4.57735027 Z" id="形状结合" fill="#C9CACE"></path>
                    <path d="M27,-0.726497308 C28.1222233,-0.726497308 29.2444465,-0.436219016 30.25,0.144337567 L30.25,0.144337567 L48.6326859,10.7575862 C49.6382394,11.3381428 50.4507394,12.1648775 51.011851,13.1367513 C51.5729627,14.1086252 51.8826859,15.2256382 51.8826859,16.3867513 L51.8826859,16.3867513 L51.8826859,37.6132487 C51.8826859,39.935475 50.6437929,42.0813006 48.6326859,43.2424138 L48.6326859,43.2424138 L30.25,53.8556624 C29.2444465,54.436219 28.1222233,54.7264973 27,54.7264973 C25.8777767,54.7264973 24.7555535,54.436219 23.75,53.8556624 L23.75,53.8556624 L5.3673141,43.2424138 C3.3562071,42.0813006 2.1173141,39.935475 2.1173141,37.6132487 L2.1173141,37.6132487 L2.1173141,16.3867513 C2.1173141,15.2256382 2.42703735,14.1086252 2.98814897,13.1367513 C3.5492606,12.1648775 4.3617606,11.3381428 5.3673141,10.7575862 L5.3673141,10.7575862 L23.75,0.144337567 C24.7555535,-0.436219016 25.8777767,-0.726497308 27,-0.726497308 Z" id="多边形" stroke="#C9CACE" stroke-width="3"></path>
                </g>
            </g>
        </g>
    </g>
</svg>